<svg width="33" height="32" viewBox="0 0 33 32" fill="none" xmlns="http://www.w3.org/2000/svg">
<g clip-path="url(#clip0_137_53)">
<path d="M13.5 19L3.20626 16.125C3.0045 16.0632 2.82746 15.9391 2.70049 15.7706C2.57352 15.602 2.50312 15.3976 2.49938 15.1866C2.49563 14.9756 2.55873 14.7689 2.67964 14.5959C2.80055 14.423 2.97307 14.2927 3.17251 14.2238L25.1725 6.06376C25.349 6.00373 25.5387 5.99423 25.7203 6.03633C25.9019 6.07843 26.0681 6.17045 26.2002 6.302C26.3323 6.43355 26.425 6.5994 26.4678 6.78083C26.5106 6.96226 26.5018 7.15204 26.4425 7.32876L18.2825 29.3288C18.2136 29.5282 18.0833 29.7007 17.9103 29.8216C17.7374 29.9425 17.5306 30.0056 17.3196 30.0019C17.1086 29.9981 16.9042 29.9277 16.7357 29.8008C16.5671 29.6738 16.4431 29.4968 16.3813 29.295L13.5 19Z" stroke="#007AFF" stroke-width="2" stroke-linecap="round" stroke-linejoin="round"/>
</g>
<defs>
<clipPath id="clip0_137_53">
<rect width="32" height="32" fill="white" transform="matrix(-1 0 0 1 32.5 0)"/>
</clipPath>
</defs>
</svg>
