<svg width="24" height="24" viewBox="0 0 24 24" fill="none" xmlns="http://www.w3.org/2000/svg">
<path opacity="0.24" d="M3.74999 13.125L3.74999 9.75C3.74999 8.76508 3.94398 7.78982 4.32089 6.87987C4.6978 5.96993 5.25025 5.14314 5.94669 4.4467C6.64313 3.75026 7.46992 3.19781 8.37987 2.8209C9.28981 2.44399 10.2651 2.25 11.25 2.25C15.3919 2.25 16.4822 4.5 19.9987 10.6875C20.2435 11.1179 20.308 11.6277 20.1783 12.1055C20.0485 12.5833 19.7351 12.9904 19.3063 13.238C18.8775 13.4856 18.3682 13.5535 17.8895 13.4269C17.4108 13.3004 17.0016 12.9896 16.7512 12.5625L15 9.75L15 19.875C15 20.3723 14.8024 20.8492 14.4508 21.2008C14.0992 21.5525 13.6223 21.75 13.125 21.75C12.6277 21.75 12.1508 21.5525 11.7992 21.2008C11.4475 20.8492 11.25 20.3723 11.25 19.875L11.25 14.625C11.25 15.1223 11.0524 15.5992 10.7008 15.9508C10.3492 16.3025 9.87227 16.5 9.37499 16.5C8.87771 16.5 8.40079 16.3025 8.04916 15.9508C7.69753 15.5992 7.49999 15.1223 7.49999 14.625L7.49999 13.125C7.49999 13.6223 7.30245 14.0992 6.95081 14.4508C6.59918 14.8025 6.12227 15 5.62499 15C5.12771 15 4.65079 14.8025 4.29916 14.4508C3.94753 14.0992 3.74999 13.6223 3.74999 13.125Z" fill="#FF3B30"/>
<path d="M5.62502 15.75C6.06223 15.7505 6.49257 15.6412 6.87658 15.4322C6.99141 15.7877 7.18081 16.1146 7.43212 16.3911C7.68343 16.6676 7.99087 16.8872 8.33387 17.0353C8.67687 17.1834 9.04754 17.2566 9.42109 17.25C9.79465 17.2434 10.1625 17.1571 10.5 16.9969L10.5 19.875C10.5 20.5712 10.7766 21.2389 11.2689 21.7312C11.7611 22.2234 12.4288 22.5 13.125 22.5C13.8212 22.5 14.4889 22.2234 14.9812 21.7312C15.4735 21.2389 15.75 20.5712 15.75 19.875L15.75 12.375L16.1081 12.9497C16.2813 13.2479 16.5115 13.5091 16.7856 13.7184C17.0597 13.9277 17.3724 14.0809 17.7057 14.1694C18.3789 14.348 19.0955 14.2519 19.6978 13.9022C20.3002 13.5525 20.7389 12.9778 20.9175 12.3046C21.0962 11.6314 21 10.9148 20.6503 10.3125L20.2125 9.54094C16.9866 3.85406 15.6516 1.5 11.25 1.5C9.06274 1.50248 6.96576 2.37247 5.41913 3.91911C3.87249 5.46575 3.0025 7.56272 3.00002 9.75L3.00002 13.125C3.00002 13.8212 3.27658 14.4889 3.76886 14.9812C4.26114 15.4734 4.92882 15.75 5.62502 15.75ZM4.50002 9.75C4.502 7.9604 5.2138 6.24466 6.47924 4.97922C7.74468 3.71378 9.46042 3.00198 11.25 3C14.7778 3 15.735 4.6875 18.9075 10.2825L19.3472 11.0578L19.3472 11.0625C19.4965 11.3206 19.5372 11.6275 19.4604 11.9156C19.3836 12.2037 19.1955 12.4495 18.9375 12.5991C18.7666 12.698 18.5725 12.7498 18.375 12.7491C18.1773 12.7494 17.9829 12.6975 17.8116 12.5988C17.6402 12.5 17.498 12.3578 17.3991 12.1866C17.3953 12.1791 17.3909 12.1718 17.386 12.165L15.6356 9.3525C15.5493 9.21457 15.4204 9.10849 15.2684 9.05026C15.1164 8.99202 14.9496 8.9848 14.7932 9.02967C14.6368 9.07455 14.4992 9.16909 14.4012 9.29903C14.3032 9.42897 14.2501 9.58726 14.25 9.75L14.25 19.875C14.25 20.1734 14.1315 20.4595 13.9205 20.6705C13.7095 20.8815 13.4234 21 13.125 21C12.8266 21 12.5405 20.8815 12.3295 20.6705C12.1185 20.4595 12 20.1734 12 19.875L12 13.5C12 13.3011 11.921 13.1103 11.7803 12.9697C11.6397 12.829 11.4489 12.75 11.25 12.75C11.0511 12.75 10.8603 12.829 10.7197 12.9697C10.579 13.1103 10.5 13.3011 10.5 13.5L10.5 14.625C10.5 14.9234 10.3815 15.2095 10.1705 15.4205C9.95953 15.6315 9.67339 15.75 9.37502 15.75C9.07665 15.75 8.7905 15.6315 8.57952 15.4205C8.36854 15.2095 8.25002 14.9234 8.25002 14.625L8.25002 12.75C8.25002 12.5511 8.171 12.3603 8.03035 12.2197C7.8897 12.079 7.69893 12 7.50002 12C7.3011 12 7.11034 12.079 6.96969 12.2197C6.82903 12.3603 6.75002 12.5511 6.75002 12.75L6.75002 13.125C6.75002 13.4234 6.63149 13.7095 6.42051 13.9205C6.20953 14.1315 5.92339 14.25 5.62502 14.25C5.32665 14.25 5.0405 14.1315 4.82952 13.9205C4.61854 13.7095 4.50002 13.4234 4.50002 13.125L4.50002 9.75Z" fill="#FF3B30"/>
</svg>
