<svg width="21" height="20" viewBox="0 0 21 20" fill="none" xmlns="http://www.w3.org/2000/svg">
<g filter="url(#filter0_d_130_38)">
<path d="M9.92633 2.2207C10.3352 1.81188 10.998 1.81189 11.4068 2.2207L12.7818 3.5957C12.7905 3.60444 12.8027 3.60931 12.815 3.60938H14.7603C15.3383 3.60948 15.807 4.07827 15.8072 4.65625V6.60156C15.8072 6.61393 15.8121 6.62601 15.8209 6.63477L17.1959 8.00977C17.6047 8.4186 17.6047 9.0814 17.1959 9.49023L15.8209 10.8652C15.8121 10.874 15.8073 10.8861 15.8072 10.8984V12.8438C15.8071 13.4218 15.3383 13.8905 14.7603 13.8906H12.815C12.8027 13.8907 12.7905 13.8956 12.7818 13.9043L11.4068 15.2793C10.998 15.6881 10.3352 15.6881 9.92633 15.2793L8.55133 13.9043C8.54257 13.8955 8.5305 13.8907 8.51813 13.8906H6.57281C5.99483 13.8905 5.52605 13.4217 5.52594 12.8438V10.8984C5.52588 10.8861 5.521 10.874 5.51227 10.8652L4.13727 9.49023C3.72846 9.0814 3.72845 8.41859 4.13727 8.00977L5.51227 6.63477C5.52102 6.62601 5.5259 6.61394 5.52594 6.60156V4.65625C5.52609 4.0783 5.99486 3.60952 6.57281 3.60938H8.51813C8.5305 3.60933 8.54258 3.60446 8.55133 3.5957L9.92633 2.2207Z" fill="#FF5C02" stroke="white"/>
<path fill-rule="evenodd" clip-rule="evenodd" d="M9.11491 8.89375L9.98045 9.75929L13.0157 6.72709C13.3186 6.42436 13.809 6.42425 14.1118 6.72709C14.4147 7.02997 14.4147 7.52026 14.1118 7.82315L10.53 11.4049C10.2271 11.7078 9.73684 11.7078 9.43396 11.4049L8.01885 9.98981C7.71597 9.68693 7.71597 9.19664 8.01885 8.89375C8.32174 8.59087 8.81203 8.59087 9.11491 8.89375Z" fill="white"/>
</g>
<defs>
<filter id="filter0_d_130_38" x="-0.583313" y="-1.25" width="22.5" height="22.5" filterUnits="userSpaceOnUse" color-interpolation-filters="sRGB">
<feFlood flood-opacity="0" result="BackgroundImageFix"/>
<feColorMatrix in="SourceAlpha" type="matrix" values="0 0 0 0 0 0 0 0 0 0 0 0 0 0 0 0 0 0 127 0" result="hardAlpha"/>
<feOffset dy="1.25"/>
<feGaussianBlur stdDeviation="1.25"/>
<feColorMatrix type="matrix" values="0 0 0 0 0.105882 0 0 0 0 0.109804 0 0 0 0 0.113725 0 0 0 0.04 0"/>
<feBlend mode="normal" in2="BackgroundImageFix" result="effect1_dropShadow_130_38"/>
<feBlend mode="normal" in="SourceGraphic" in2="effect1_dropShadow_130_38" result="shape"/>
</filter>
</defs>
</svg>
