<?xml version="1.0" encoding="utf-8"?>
<!-- Generator: Adobe Illustrator 27.5.0, SVG Export Plug-In . SVG Version: 6.00 Build 0)  -->
<svg version="1.1" id="BASE" xmlns="http://www.w3.org/2000/svg" xmlns:xlink="http://www.w3.org/1999/xlink" x="0px" y="0px"
	 viewBox="0 0 2122 2122" style="enable-background:new 0 0 2122 2122;" xml:space="preserve">
<g>
	<path style="fill:#004899;" d="M1976.582,819.218c0-60.518-49.06-109.579-109.579-109.579h-458.611l0.005-0.005V250.996
		c0-36.427-17.788-68.697-45.147-88.615c-18.088-13.177-40.364-20.953-64.456-20.953H957.656c-29.803,0-56.811,11.914-76.566,31.219
		l-0.007,0.008l-0.013,0.014h-0.009l-5.937,6.286L754.041,307.222c0.029-0.023,0.058-0.046,0.089-0.07l-0.08,0.084
		c-7.928,6.357-14.945,13.792-20.845,22.084l-0.002,0.003h0.001c-12.739,17.905-20.256,39.785-20.256,63.433v316.883H389.446
		c-33.514,0-63.494,15.062-83.594,38.766h-0.001L189.025,872.965c-10.487,7.793-19.514,17.429-26.647,28.41l-0.003,0.002h0.001
		c-11.142,17.156-17.64,37.609-17.64,59.589v341.137c0,60.518,49.059,109.579,109.579,109.579h458.631v458.631
		c0,60.518,49.06,109.579,109.579,109.579h341.138c37.396,0,70.401-18.747,90.175-47.342l122.042-126.123l2.459-2.542l0.001-0.001
		c18.6-19.638,30.032-46.136,30.032-75.32v-316.881h323.501c34.663,0,65.546-16.113,85.625-41.237l114.073-121.575
		c10.996-8.035,20.404-18.093,27.762-29.588l0.102-0.109l-0.017-0.024c10.84-16.992,17.162-37.144,17.162-58.794V819.218z"/>
	<g>
		<path style="fill:#005BA8;" d="M1731.875,851.388h-458.631v-0.012l0.001-0.004l135.148-141.733l0.005-0.005V250.996
			c0-36.427-17.788-68.697-45.147-88.615c-18.092-13.173-40.373-20.944-64.461-20.944H957.642
			c-29.785,0-56.775,11.923-76.532,31.231h-0.05l-5.937,6.286L754.041,307.222c0.029-0.023,0.058-0.046,0.089-0.07
			c10.833-8.655,23.341-15.314,36.97-19.394l-0.005,0.004c-13.658,4.09-26.195,10.774-37.046,19.474
			c-7.928,6.357-14.945,13.792-20.845,22.084l-0.001,0.003c-12.739,17.905-20.256,39.785-20.256,63.433v458.632H254.317
			c-24.466,0-47.055,8.024-65.292,21.577c-10.487,7.793-19.514,17.429-26.647,28.41l-0.001,0.002
			c-11.142,17.156-17.64,37.609-17.64,59.589v341.137c0,60.518,49.059,109.579,109.579,109.579h458.631v458.631
			c0,60.518,49.06,109.579,109.579,109.579h341.138c37.396,0,70.401-18.747,90.175-47.342l122.042-126.123l2.459-2.542l0.001-0.001
			c18.6-19.638,30.032-46.136,30.032-75.32v-316.881h323.501c34.663,0,65.546-16.113,85.625-41.237
			c14.978-18.741,23.954-42.487,23.954-68.342V960.967C1841.453,900.449,1792.392,851.388,1731.875,851.388z"/>
		<path style="fill:#042D63;" d="M1273.244,1870.314c0,23.121-7.179,44.557-19.404,62.237l122.042-126.123l2.459-2.542l0.001-0.001
			c18.6-19.638,30.032-46.136,30.032-75.32v-316.881h-135.129V1870.314z"/>
		<path style="fill:#042D63;" d="M1163.687,283.175c60.517,0,109.558,49.042,109.558,109.558v458.639l135.148-141.733l0.005-0.005
			V250.996c0-36.427-17.788-68.697-45.147-88.615c-18.092-13.173-40.373-20.944-64.461-20.944H957.642
			c-29.785,0-56.775,11.923-76.532,31.231h-0.05l-5.937,6.286L754.041,307.222c0.029-0.023,0.058-0.046,0.089-0.07
			c18.744-14.975,42.507-23.978,68.41-23.978H1163.687z"/>
		<path style="fill:#0069B3;" d="M884.368,406c-57.808,0-104.67,46.862-104.67,104.669v1278.012
			c0,57.807,46.862,104.669,104.67,104.669c57.807,0,104.669-46.862,104.669-104.669V510.669
			C989.037,452.862,942.175,406,884.368,406z"/>
		<path style="fill:#E7E6F4;" d="M1241.163,535.267c-0.415-28.134-0.465-56.353-1.629-84.465
			c-0.791-19.102,4.359-46.858-10.759-60.684c-0.618-0.566-1.501-0.568-2.122,0c-14.314,13.091-9.594,37.651-10.392,55.715
			c-1.315,29.77-1.557,59.633-1.997,89.434c-0.415,28.155-0.831,56.31-1.247,84.465c-0.418,28.348-1.895,54.44,7.067,81.599
			c2.477,7.503,12.781,7.513,15.259,0c8.495-25.742,7.537-49.776,7.14-76.631C1242.044,594.889,1241.604,565.077,1241.163,535.267z"
			/>
		<path style="fill:#E7E6F4;" d="M1223.661,740.324c-14.922,0-14.946,23.191,0,23.191
			C1238.584,763.516,1238.608,740.324,1223.661,740.324z"/>
		<path style="fill:#E7E6F4;" d="M1778.936,1004.173c-0.148-18.033,5.028-43.57-11.242-55.174c-0.47-0.335-1.32-0.335-1.789,0
			c-15.317,10.923-10.951,33.186-11.203,50.297c-0.453,30.875-0.7,61.778-0.701,92.655c-0.004,56.642-3.942,116.681,5.564,172.675
			c1.217,7.161,13.255,7.166,14.47,0c9.508-55.996,5.569-116.03,5.565-172.675
			C1779.597,1062.693,1779.176,1033.43,1778.936,1004.173z"/>
		<path style="fill:#E7E6F4;" d="M1227.443,1540.883c-0.122-28.99,3.318-61.636-5.047-89.634c-2.014-6.739-11.665-6.747-13.681,0
			c-8.385,28.062-4.926,60.572-5.049,89.634c-0.129,30.874-0.297,61.748-0.381,92.623c-0.166,60.845-4.449,122.135,7.009,181.82
			c0.999,5.206,9.524,5.209,10.524,0c11.459-59.69,7.173-120.971,7.008-181.82
			C1227.741,1602.632,1227.573,1571.758,1227.443,1540.883z"/>
		<path style="fill:#E7E6F4;" d="M289.736,894.189c-31.888-14.709-74.214,19.419-91.565,43.888
			c-21.756,30.679-34.194,83.617-9.397,115.663c4.994,6.455,14.965,0.673,15.137-6.27c0.381-15.418-4.054-30.333-2.972-45.831
			c1.273-18.24,7.722-36.346,18.383-51.199c9.939-13.845,24.084-25.055,39.139-32.867c11.031-5.726,22.797-7.886,32.215-16.1
			C292.785,899.633,292.358,895.399,289.736,894.189z"/>
		<path style="fill:#E7E6F4;" d="M194.131,1086.08c-13.342,0-13.364,20.736,0,20.736
			C207.473,1106.816,207.495,1086.08,194.131,1086.08z"/>
		<path style="fill:#E7E6F4;" d="M842.159,362.457c5.326-7.147-3.442-16.133-10.939-14.228
			c-60.094,15.272-101.582,108.102-77.933,163.624c2.285,5.364,10.297,3.264,11.718-1.532c8.258-27.86,12.273-56.685,25.906-82.842
			C804.131,402.112,825.416,384.924,842.159,362.457z"/>
	</g>
</g>
</svg>
