<?xml version="1.0" encoding="utf-8"?>
<!-- Generator: Adobe Illustrator 27.5.0, SVG Export Plug-In . SVG Version: 6.00 Build 0)  -->
<svg version="1.1" xmlns="http://www.w3.org/2000/svg" xmlns:xlink="http://www.w3.org/1999/xlink" x="0px" y="0px"
	 viewBox="0 0 750 500" style="enable-background:new 0 0 750 500;" xml:space="preserve">
<g id="BACKGROUND">
	<g>
		<path style="fill:#C5FFFD;" d="M261.948,378.055c-48-12-89-32-131-59C83.271,288.504,38.171,253.879,0,213.997V500h750.064
			V298.393C605.54,385.458,433.161,418.565,261.948,378.055z"/>
		<path style="fill:#E1FFFD;" d="M0,0.001v213.997c38.171,39.882,83.271,74.507,130.948,105.058c42,27,83,47,131,59
			c171.213,40.51,343.592,7.403,488.116-79.662V0.001H0z"/>
	</g>
</g>
<g id="OBJECTS">
	<g>
		<g>
			<path style="fill:#F07237;" d="M503.446,437.774c-3.768-19.924-8.492-45.044-8.492-45.044l-38.368,5.703
				c0,0,0.852,17.458,2.94,38.482C474.231,437.768,488.758,438.17,503.446,437.774z"/>
			<path style="fill:#FF9660;" d="M503.446,437.774c-14.688,0.396-29.215-0.006-43.92-0.859c0.216,2.177,0.445,4.391,0.689,6.627
				c2.593,23.851,10.37,56.459,10.37,56.459h43.034c0,0-3.629-27.941-6.222-41.422C506.6,454.434,505.118,446.616,503.446,437.774z"
				/>
			<path style="fill:#40A0FB;" d="M471.103,311.328c-1.495,1.121-12.679,29.969-16.292,65.982
				c13.421,7.073,27.198,12.668,41.602,16.374C489.338,361.238,472.549,310.244,471.103,311.328z"/>
			<path style="fill:#1B8CEA;" d="M454.811,377.31c-1.401,13.968-1.665,29.012,0.219,43.937c0.459,3.638,34.221,2.593,43.034-1.555
				c2.675-1.259,1.433-11.877-1.65-26.008C482.01,389.978,468.232,384.383,454.811,377.31z"/>
			
				<line style="fill:none;stroke:#000000;stroke-width:1.037;stroke-linecap:round;stroke-linejoin:round;stroke-miterlimit:10;" x1="456.067" y1="410.878" x2="495.473" y2="408.803"/>
		</g>
		<g>
			<path style="fill:#FF9660;" d="M644.71,461.02c-0.977,13.692-0.432,38.98-0.432,38.98h40.442c0,0,5.31-35.514,5.059-59.504
				c-0.027-2.558-0.069-5.08-0.121-7.553c-13.981,3.361-28.553,4.282-43.308,4.27C645.666,447.271,645.04,456.396,644.71,461.02z"/>
			<path style="fill:#F07237;" d="M649.263,394.16c0,0-1.568,23.323-2.912,43.054c14.755,0.013,29.327-0.908,43.308-4.27
				c-0.433-20.719-1.622-37.668-1.622-37.668L649.263,394.16z"/>
			<path style="fill:#1B8CEA;" d="M649.369,421.299c9.244,3.076,42.892,0.111,42.916-3.555c0.095-14.005-1.673-27.891-4.376-40.799
				c-13.033,4.754-26.13,8.999-39.387,12.637C646.577,406.784,646.206,420.248,649.369,421.299z"/>
			<path style="fill:#40A0FB;" d="M663.298,310.505c-1.476-0.854-11.034,46.018-14.775,79.077
				c13.257-3.638,26.353-7.883,39.387-12.637C680.225,340.243,664.957,311.466,663.298,310.505z"/>
			
				<line style="fill:none;stroke:#000000;stroke-width:1.037;stroke-linecap:round;stroke-linejoin:round;stroke-miterlimit:10;" x1="646.352" y1="408.803" x2="691.979" y2="407.248"/>
		</g>
		<g>
			<path style="fill:#FF9660;" d="M548.014,252.57v15.551l26.962,35.603l17.629-36.294v-17.881
				C578.914,256.418,563.36,256.968,548.014,252.57z"/>
			<path style="fill:#F07237;" d="M592.604,249.548V233.9h-44.591v18.67C563.36,256.968,578.914,256.418,592.604,249.548z"/>
			<path style="fill:#00D2D9;" d="M646.401,432.415c2.084-11.353,3.995-21.947,5.136-28.796
				c3.63-21.776,11.242-88.966,11.761-93.113c0.519-4.148-67.757-58.286-70.35-58.286s-15.555,35.258-17.629,35.258
				c0,0-24.887-31.628-27.998-32.147c-3.111-0.519-75.181,53.404-76.218,55.997c-1.037,2.592,11.925,61.7,21.258,90.735
				c2.935,9.129,6.843,20.514,10.871,31.944c5.75,1.846,11.439,3.874,17.128,5.905C563.158,454.179,606.559,449.045,646.401,432.415
				z"/>
			<path style="fill:#40A0FB;" d="M646.401,432.415c-39.843,16.631-83.243,21.765-126.041,7.498
				c-5.688-2.031-11.378-4.06-17.128-5.905c8.783,24.929,18.135,50.081,19.201,52.569c1.556,3.629-5.185,13.424-5.185,13.424
				h124.956c0,0-5.704-11.868-5.704-13.424C636.501,485.51,641.861,457.159,646.401,432.415z"/>
			
				<line style="fill:none;stroke:#000000;stroke-width:1.037;stroke-linecap:round;stroke-linejoin:round;stroke-miterlimit:10;" x1="526.063" y1="272.441" x2="577.912" y2="327.919"/>
			
				<line style="fill:none;stroke:#000000;stroke-width:1.037;stroke-linecap:round;stroke-linejoin:round;stroke-miterlimit:10;" x1="582.06" y1="324.808" x2="614.206" y2="270.367"/>
			
				<line style="fill:none;stroke:#000000;stroke-width:1.037;stroke-linecap:round;stroke-linejoin:round;stroke-miterlimit:10;" x1="574.801" y1="289.033" x2="588.801" y2="307.698"/>
			<path style="fill:#72EEEE;" d="M596.06,341.4c1.089-2.724,45.627-2.074,48.219,0c2.593,2.074,9.333,55.478-23.332,55.478
				C588.282,396.878,595.022,343.993,596.06,341.4z"/>
			
				<line style="fill:none;stroke:#000000;stroke-width:1.037;stroke-linecap:round;stroke-linejoin:round;stroke-miterlimit:10;" x1="597.097" y1="360.065" x2="644.797" y2="360.065"/>
			
				<line style="fill:none;stroke:#FFFFFF;stroke-width:1.037;stroke-linecap:round;stroke-linejoin:round;stroke-miterlimit:10;" x1="594.676" y1="257.75" x2="659.66" y2="308.216"/>
		</g>
		<g>
			<path style="fill:#560C00;" d="M610.836,209.444c0,0,3.63,12.962,20.222,9.333c16.591-3.629,15.295-25.147,15.295-25.147
				s20.481,2.333,20.999-23.073c0.519-25.406-20.739-25.665-20.739-25.665s8.813-15.295-11.407-22.295
				c-20.221-7-23.85,27.221-23.85,27.221S575.06,181.186,610.836,209.444z"/>
			<path style="fill:#821D06;" d="M512.842,175.743c0,0-4.666-19.443-3.63-33.183c1.037-13.74,43.813-18.407,58.071-18.407
				s56.343,5.358,57.466,16.419c1.123,11.061,0.174,30.813,0,34.158C624.576,178.076,514.916,181.446,512.842,175.743z"/>
			<path style="fill:#F07237;" d="M517.94,176.52c0,0-7.605-14.863-16.246-12.098c-8.642,2.765-11.752,34.22,3.803,36.294
				c15.555,2.074,18.665-7.605,18.665-7.605L517.94,176.52z"/>
			<path style="fill:#F07237;" d="M620.34,176.52c0,0,7.606-14.863,16.247-12.098c8.641,2.765,11.752,34.22-3.803,36.294
				c-15.555,2.074-18.666-7.605-18.666-7.605L620.34,176.52z"/>
			<path style="fill:#FF9660;" d="M616.652,138.293l-46.863-3.832v-0.111l-0.678,0.056l-0.679-0.056v0.111l-46.862,3.832
				c-1.505,12.428-4.779,24.327-8.098,36.437c1.01,14.627,4.306,30.954,12.764,43.27c11.9,17.327,36.212,23.631,42.196,24.953h1.356
				c5.984-1.322,30.297-7.626,42.196-24.953c8.458-12.316,11.754-28.643,12.764-43.27
				C621.431,162.62,618.157,150.721,616.652,138.293z"/>
			<path style="fill:#F07237;" d="M584.13,193.63c-0.259-5.444-8.296-2.852-9.333-3.37c-1.037-0.519-2.722-19.417-4.147-26.702
				c-1.546-7.898-5.45-7.898-6.996,0c-1.426,7.286-3.11,26.184-4.147,26.702c-1.037,0.518-9.073-2.074-9.333,3.37
				c-0.249,5.224,10.241,10.206,16.588,10.601h0.781C573.889,203.837,584.379,198.855,584.13,193.63z"/>
			
				<path style="fill:none;stroke:#000000;stroke-width:1.037;stroke-linecap:round;stroke-linejoin:round;stroke-miterlimit:10;" d="
				M546.631,207.111c5.519,4.111,14.259,6.836,21.431,8.642"/>
			<path d="M565.124,202.618c0.864-0.173-7.433-7.086-9.16-5.012C554.235,199.68,564.261,202.79,565.124,202.618z"/>
			
				<path style="fill:none;stroke:#000000;stroke-width:1.037;stroke-linecap:round;stroke-linejoin:round;stroke-miterlimit:10;" d="
				M591.65,207.111c-5.519,4.111-14.26,6.836-21.432,8.642"/>
			<path d="M569.009,202.618c-0.864-0.173,7.433-7.086,9.16-5.012C579.897,199.68,569.872,202.79,569.009,202.618z"/>
			
				<path style="fill:none;stroke:#000000;stroke-width:1.2997;stroke-linecap:round;stroke-linejoin:round;stroke-miterlimit:10;" d="
				M562.876,219.037c3.786,2.113,8.066,2.14,11.925,0"/>
			<path style="opacity:0.5;fill:#72EEEE;" d="M622.524,194.522c-1.556-1.909-22.813-9.821-31.109-12.003
				c-6.554-1.725-17.31-2.597-21.539-2.887h-1.793c-4.229,0.291-14.985,1.163-21.539,2.887
				c-8.296,2.182-29.555,10.094-31.109,12.003c-1.556,1.91,4.666,17.733,15.036,31.102c8.822,11.373,31.143,17.214,37.612,18.705
				h1.793c6.469-1.491,28.79-7.333,37.612-18.705C617.858,212.255,624.08,196.432,622.524,194.522z"/>
			<path style="fill:#821D06;" d="M527.964,156.472c0,0,8.297-3.802,15.901-3.111c7.604,0.691,11.06,4.839,11.752,3.456
				c0.692-1.382-3.803-10.024-8.987-10.024C537.384,146.794,531.162,153.534,527.964,156.472z"/>
			<path style="fill:#560C00;" d="M547.734,171.467c0,4.797-1.829,7.56-4.085,7.56c-2.256,0-4.085-2.762-4.085-7.56
				c0-4.797,1.829-8.686,4.085-8.686C545.905,162.78,547.734,166.669,547.734,171.467z"/>
			
				<path style="fill:none;stroke:#000000;stroke-width:1.037;stroke-linecap:round;stroke-linejoin:round;stroke-miterlimit:10;" d="
				M541.186,158.373c1.939-1.358,6.899-1.007,8.21,0.951"/>
			
				<path style="fill:none;stroke:#000000;stroke-width:1.037;stroke-linecap:round;stroke-linejoin:round;stroke-miterlimit:10;" d="
				M502.387,170.298c3.804,2.408,7.437,6.536,9.833,10.681c-9.781,2.322-5.054,12.079,3.82,10.577"/>
			<path style="fill:#821D06;" d="M606.169,156.472c0,0-8.297-3.802-15.901-3.111c-7.604,0.691-11.06,4.839-11.752,3.456
				c-0.691-1.382,3.803-10.024,8.987-10.024C596.749,146.794,602.971,153.534,606.169,156.472z"/>
			<path style="fill:#560C00;" d="M586.398,171.467c0,4.797,1.829,7.56,4.085,7.56c2.256,0,4.085-2.762,4.085-7.56
				c0-4.797-1.829-8.686-4.085-8.686C588.227,162.78,586.398,166.669,586.398,171.467z"/>
			
				<path style="fill:none;stroke:#000000;stroke-width:1.037;stroke-linecap:round;stroke-linejoin:round;stroke-miterlimit:10;" d="
				M592.946,158.373c-1.939-1.358-6.899-1.007-8.21,0.951"/>
			
				<path style="fill:none;stroke:#000000;stroke-width:1.037;stroke-linecap:round;stroke-linejoin:round;stroke-miterlimit:10;" d="
				M635.893,170.298c-3.804,2.408-7.435,6.536-9.833,10.681c9.781,2.322,5.055,12.079-3.819,10.577"/>
			<path style="fill:#00D2D9;" d="M619.911,79.39c-6.567-5.185-100.241-7.259-105.08,2.074c-1.963,3.784-3.84,14.302-5.274,25.574
				c19.921,9.337,41.804,14.853,63.69,15.559c18.486,0.499,36.004-5.751,51.984-15.252C624.495,94.239,622.87,81.727,619.911,79.39z
				"/>
			<path style="fill:#40A0FB;" d="M573.246,122.598c-21.886-0.706-43.769-6.222-63.69-15.559
				c-2.103,16.53-3.256,34.682-2.331,35.607c1.909,1.909,25.579-6.914,64.293-6.914c38.713,0,51.502,5.531,53.23,4.839
				c0.95-0.38,1.378-17.245,0.481-33.226C609.25,116.847,591.732,123.097,573.246,122.598z"/>
			<path style="fill:#0088F7;" d="M569.696,184.816c3.448,0.241,14.234,1.094,20.399,2.717c7.056,1.855,21.558,7.273,27.091,9.852
				c-1.353,4.618-6.172,15.235-13.795,25.062c-6.064,7.815-21.484,13.718-34.112,16.698h-0.6
				c-12.628-2.98-28.049-8.882-34.112-16.698c-7.623-9.827-12.441-20.444-13.795-25.062c5.533-2.579,20.035-7.996,27.091-9.852
				c6.165-1.622,16.951-2.476,20.399-2.717H569.696 M569.876,179.631h-1.793c-4.229,0.291-14.985,1.163-21.539,2.887
				c-8.296,2.182-29.555,10.094-31.109,12.003c-1.556,1.91,4.666,17.733,15.036,31.102c8.822,11.373,31.143,17.214,37.612,18.705
				h1.793c6.469-1.491,28.79-7.333,37.612-18.705c10.37-13.369,16.592-29.192,15.036-31.102
				c-1.556-1.909-22.813-9.821-31.109-12.003C584.861,180.794,574.104,179.922,569.876,179.631L569.876,179.631z"/>
			<path style="fill:#0088F7;" d="M522.952,191.557c0,0-9.333-24.888-11.406-24.369c-2.074,0.519,2.333,27.48,3.629,28.776
				C516.472,197.26,522.952,191.557,522.952,191.557z"/>
			<path style="fill:#0088F7;" d="M614.696,191.557c0,0,9.333-24.888,11.407-24.369c2.073,0.519-2.333,27.48-3.63,28.776
				C621.178,197.26,614.696,191.557,614.696,191.557z"/>
			
				<path style="fill:none;stroke:#FFFFFF;stroke-width:1.037;stroke-linecap:round;stroke-linejoin:round;stroke-miterlimit:10;" d="
				M589.839,77.316c8.904,0.52,19.108,1.251,27.998,2.42"/>
			
				<path style="fill:none;stroke:#FFFFFF;stroke-width:1.037;stroke-linecap:round;stroke-linejoin:round;stroke-miterlimit:10;" d="
				M562.185,193.804c3.278,3.214,6.901,3.07,10.024-0.346"/>
			
				<path style="fill:none;stroke:#FFFFFF;stroke-width:1.037;stroke-linecap:round;stroke-linejoin:round;stroke-miterlimit:10;" d="
				M634.082,125.709c5.021,1.767,8.412,5.429,9.679,10.716"/>
			
				<path style="fill:none;stroke:#FFFFFF;stroke-width:1.037;stroke-linecap:round;stroke-linejoin:round;stroke-miterlimit:10;" d="
				M645.489,148.176c4.022,0.921,7.838,2.424,11.406,4.494"/>
			
				<path style="fill:none;stroke:#FFFFFF;stroke-width:1.037;stroke-linecap:round;stroke-linejoin:round;stroke-miterlimit:10;" d="
				M660.007,157.164c1.097,1.975,1.824,4.286,2.073,6.567"/>
			
				<path style="fill:none;stroke:#FFFFFF;stroke-width:1.037;stroke-linecap:round;stroke-linejoin:round;stroke-miterlimit:10;" d="
				M552.506,204.519c6.945,6.719,13.612,14.089,19.703,21.431"/>
			
				<path style="fill:none;stroke:#FFFFFF;stroke-width:1.037;stroke-linecap:round;stroke-linejoin:round;stroke-miterlimit:10;" d="
				M565.642,206.939c2.216,1.944,4.186,4.147,5.875,6.568"/>
			<path style="fill:#560C00;" d="M531.459,170.428c0,0,7.793-3.581,12.217-3.581c4.423,0,10.953,2.949,10.953,2.949
				s-7.162-7.794-10.742-7.794C540.306,162.003,531.459,170.428,531.459,170.428z"/>
			<path style="fill:#560C00;" d="M602.068,170.428c0,0-7.794-3.581-12.217-3.581c-4.424,0-10.953,2.949-10.953,2.949
				s7.162-7.794,10.742-7.794C593.222,162.003,602.068,170.428,602.068,170.428z"/>
		</g>
	</g>
	<g>
		<g>
			<path style="fill:#E05B2D;" d="M50.952,465.669C50.321,480.325,49.572,500,49.572,500h70.515l-1.537-16.305
				C96.286,477.416,73.185,473.896,50.952,465.669z"/>
			<path style="fill:#CE4313;" d="M115.939,455.986c0,0-63.774-12.444-64.293-4.667c-0.159,2.383-0.415,7.878-0.694,14.351
				c22.233,8.227,45.334,11.746,67.598,18.026L115.939,455.986z"/>
			<path style="fill:#40A0FB;" d="M87.94,295.254c-4.068,0-21.848,50.109-33.405,98.789c16.301,14.642,36.7,24.466,57.866,30.109
				C105.38,374.155,91.868,295.254,87.94,295.254z"/>
			<path style="fill:#1B8CEA;" d="M54.535,394.043c-4.647,19.576-8.291,38.921-9.629,54.684
				c-0.377,4.444,68.44,18.146,71.552,15.555c0.969-0.808-0.879-17.512-4.056-40.129C91.235,418.509,70.836,408.685,54.535,394.043z
				"/>
			
				<line style="fill:none;stroke:#000000;stroke-width:1.037;stroke-linecap:round;stroke-linejoin:round;stroke-miterlimit:10;" x1="50.609" y1="429.024" x2="112.309" y2="444.06"/>
		</g>
		<g>
			<path style="fill:#CE4313;" d="M391.254,451.319c-0.519-7.777-64.292,4.667-64.292,4.667l-2.296,24.358
				c22.929-2.307,46.021-8.167,67.173-17.194C391.602,457.793,391.392,453.386,391.254,451.319z"/>
			<path style="fill:#E05B2D;" d="M324.666,480.344L322.813,500h70.515c0,0-0.839-22.051-1.489-36.851
				C370.686,472.177,347.595,478.038,324.666,480.344z"/>
			<path style="fill:#1B8CEA;" d="M326.443,464.282c3.11,2.592,71.928-11.11,71.551-15.555c-1.281-15.105-4.683-33.5-9.053-52.236
				c-18.493,11.78-37.78,21.652-58.292,26.586C327.382,446.238,325.459,463.461,326.443,464.282z"/>
			<path style="fill:#40A0FB;" d="M354.96,295.254c-3.898,0-17.247,77.777-24.311,127.822c20.512-4.934,39.799-14.806,58.292-26.586
				C377.407,347.057,359.096,295.254,354.96,295.254z"/>
			
				<line style="fill:none;stroke:#000000;stroke-width:1.037;stroke-linecap:round;stroke-linejoin:round;stroke-miterlimit:10;" x1="392.291" y1="429.024" x2="330.591" y2="444.06"/>
		</g>
		<g>
			<path style="fill:#E05B2D;" d="M248.614,263.678c-17.615,4.544-36.224,3.699-52.356-3.675l25.453,67.57L248.614,263.678z"/>
			<path style="fill:#CE4313;" d="M248.614,263.678l6.279-14.915v-18.666h-62.218v20.394l3.583,9.512
				C212.391,267.378,230.999,268.222,248.614,263.678z"/>
			<path style="fill:#00D2D9;" d="M225.858,478.281c39.425-1.487,74.045-19.518,105.395-42.223c0.718-4.125,1.229-7.058,1.414-8.071
				c1.037-5.703,23.505-128.066,22.986-132.732c-0.519-4.667-97.648-49.775-99.723-48.738c-2.074,1.037-32.146,72.07-34.738,72.07
				c-2.593,0-25.925-68.959-30.073-70.515c-4.148-1.556-96.439,39.405-103.179,47.183c-6.74,7.777,18.147,116.66,21.776,130.659
				c1.284,4.953,2.957,15.677,4.584,27.467C150.315,467.535,186.6,480.636,225.858,478.281z"/>
			<path style="fill:#40A0FB;" d="M225.858,478.281c-39.258,2.355-75.544-10.746-111.557-24.9c2.971,21.531,5.786,46.62,5.786,46.62
				h200.137c0,0,7.713-44.838,11.029-63.942C299.903,458.763,265.283,476.793,225.858,478.281z"/>
			
				<line style="fill:none;stroke:#000000;stroke-width:1.037;stroke-linecap:round;stroke-linejoin:round;stroke-miterlimit:10;" x1="160.01" y1="264.145" x2="219.118" y2="367.842"/>
			
				<line style="fill:none;stroke:#000000;stroke-width:1.037;stroke-linecap:round;stroke-linejoin:round;stroke-miterlimit:10;" x1="223.784" y1="366.288" x2="284.966" y2="261.552"/>
			
				<line style="fill:none;stroke:#000000;stroke-width:1.037;stroke-linecap:round;stroke-linejoin:round;stroke-miterlimit:10;" x1="221.192" y1="318.586" x2="232.599" y2="342.956"/>
			<path style="fill:#72EEEE;" d="M269.411,351.769c1.09-2.723,45.627-2.073,48.22,0c2.593,2.074,9.333,55.478-23.332,55.478
				C261.634,407.248,268.374,354.362,269.411,351.769z"/>
			
				<line style="fill:none;stroke:#000000;stroke-width:1.037;stroke-linecap:round;stroke-linejoin:round;stroke-miterlimit:10;" x1="270.448" y1="370.435" x2="318.149" y2="370.435"/>
			<path style="fill:#C5FFFD;" d="M270.738,451.983c0.123,13.201,0.401,26.644,0.401,26.644s48.392,1.382,50.121,0
				c0.926-0.741,0.859-15.587,0.598-29.203c-4.523,4.514-9.437,8.122-16.152,9.155C293.43,460.745,281.657,457.378,270.738,451.983z
				"/>
			<path style="fill:#FFFFFF;" d="M271.14,426.777c-0.5,0.834-0.517,12.915-0.401,25.206c10.919,5.395,22.691,8.762,34.968,6.596
				c6.716-1.033,11.629-4.642,16.152-9.155c-0.227-11.783-0.598-22.647-0.598-22.647S272.177,425.048,271.14,426.777z"/>
			
				<line style="fill:none;stroke:#FFFFFF;stroke-width:1.374;stroke-linecap:round;stroke-linejoin:round;stroke-miterlimit:10;" x1="294.989" y1="381.496" x2="294.989" y2="427.123"/>
			
				<line style="fill:none;stroke:#FFFFFF;stroke-width:4.2977;stroke-linecap:round;stroke-linejoin:round;stroke-miterlimit:10;" x1="294.989" y1="372.854" x2="294.989" y2="347.622"/>
			<path style="fill:#C5FFFD;" d="M302.249,426.086c0,3.817-3.096,6.913-6.913,6.913c-3.817,0-6.914-3.096-6.914-6.913
				c0-3.817,3.097-6.913,6.914-6.913C299.153,419.172,302.249,422.268,302.249,426.086z"/>
			<path style="fill:#C5FFFD;" d="M304.496,379.25c0,5.059-4.102,9.159-9.16,9.159c-5.059,0-9.161-4.101-9.161-9.159
				c0-5.06,4.102-9.161,9.161-9.161C300.395,370.088,304.496,374.19,304.496,379.25z"/>
			
				<line style="fill:none;stroke:#FFFFFF;stroke-width:1.037;stroke-linecap:round;stroke-linejoin:round;stroke-miterlimit:10;" x1="262.499" y1="252.219" x2="338.889" y2="288.168"/>
		</g>
		<g>
			<path style="fill:#CE4313;" d="M170.121,129.079c0,0-2.852-24.887-15.814-23.85c-12.962,1.037-27.739,24.369-12.444,41.738
				c15.295,17.37,29.554,6.741,29.554,3.37C171.417,146.966,170.121,129.079,170.121,129.079z"/>
			
				<path style="fill:none;stroke:#000000;stroke-width:1.2997;stroke-linecap:round;stroke-linejoin:round;stroke-miterlimit:10;" d="
				M146.53,116.635c11.086-8.526,14.729,6.553,14.219,16.553c-14.707,1.035-6.219,13.974,3.409,10.927"/>
			<path style="fill:#CE4313;" d="M286.185,129.079c0,0,2.852-24.887,15.814-23.85c12.963,1.037,27.739,24.369,12.444,41.738
				c-15.296,17.37-29.555,6.741-29.555,3.37C284.889,146.966,286.185,129.079,286.185,129.079z"/>
			
				<path style="fill:none;stroke:#000000;stroke-width:1.2997;stroke-linecap:round;stroke-linejoin:round;stroke-miterlimit:10;" d="
				M309.776,116.635c-11.086-8.526-14.729,6.553-14.22,16.553c14.707,1.035,6.22,13.974-3.409,10.927"/>
			<path style="fill:#560C00;" d="M163.899,139.189c0,0-6.74-31.109,8.296-64.033c15.036-32.924,40.183-37.85,61.441-37.85
				s45.524,16.983,52.886,36.554c10.629,28.257,5.703,67.144,5.703,67.144L163.899,139.189z"/>
			<path style="fill:#E05B2D;" d="M277.662,76.625c-8.654-15.614-22.517-22.927-33.36-26.356c-3.026,5.513-9.886,17.11-14.036,17.11
				c-4.501,0-12.72-13.285-15.432-17.887c-11.137,3.049-26.615,10.229-35.984,27.134c-15.9,28.69-14.864,79.501-14.864,79.501
				l8.987,22.468h54.96h0.646h54.96l8.986-22.468C292.524,156.126,293.561,105.315,277.662,76.625z"/>
			<path style="fill:#821D06;" d="M292.524,150.596c0,0-5.875,23.16-8.986,20.395c-3.11-2.766-10.024-11.061-19.012-10.37
				c-8.986,0.691-22.814,6.567-28.344,7.604c-5.261,0.986-7.701,1.347-7.928,1.38c-0.225-0.033-2.666-0.394-7.927-1.38
				c-5.53-1.037-19.357-6.913-28.344-7.604c-8.987-0.691-15.9,7.604-19.011,10.37c-3.111,2.766-8.987-20.395-8.987-20.395
				c-0.691,26.616,6.567,55.306,10.715,66.367c4.148,11.061,9.333,10.37,9.333,10.37s17.629,11.061,23.504,10.716
				c5.876-0.346,4.84-2.765,7.605-3.111s4.838,3.802,7.259,5.876c2.262,1.938,5.875,2.756,5.875,2.756
				c0.404-0.087,3.569-0.818,5.831-2.756c2.421-2.074,4.493-6.222,7.259-5.876c2.766,0.346,1.729,2.765,7.605,3.111
				c5.876,0.346,23.505-10.716,23.505-10.716s5.186,0.691,9.333-10.37C285.958,205.901,293.217,177.212,292.524,150.596z"/>
			
				<path style="fill:none;stroke:#000000;stroke-width:1.2997;stroke-linecap:round;stroke-linejoin:round;stroke-miterlimit:10;" d="
				M200.28,178.018c6.917,5.153,17.873,8.569,26.861,10.831"/>
			
				<path style="fill:none;stroke:#000000;stroke-width:1.2997;stroke-linecap:round;stroke-linejoin:round;stroke-miterlimit:10;" d="
				M256.706,178.018c-6.917,5.153-17.872,8.569-26.86,10.831"/>
			<path d="M201.256,133.531c0,4.798-1.829,7.56-4.085,7.56c-2.256,0-4.085-2.762-4.085-7.56c0-4.797,1.829-8.686,4.085-8.686
				C199.428,124.845,201.256,128.734,201.256,133.531z"/>
			
				<path style="fill:none;stroke:#000000;stroke-width:1.037;stroke-linecap:round;stroke-linejoin:round;stroke-miterlimit:10;" d="
				M194.708,120.438c1.939-1.358,6.899-1.008,8.21,0.951"/>
			<path d="M253.401,133.531c0,4.798,1.828,7.56,4.085,7.56c2.256,0,4.085-2.762,4.085-7.56c0-4.797-1.829-8.686-4.085-8.686
				C255.229,124.845,253.401,128.734,253.401,133.531z"/>
			
				<path style="fill:none;stroke:#000000;stroke-width:1.037;stroke-linecap:round;stroke-linejoin:round;stroke-miterlimit:10;" d="
				M259.949,120.438c-1.939-1.358-6.899-1.008-8.21,0.951"/>
			
				<path style="fill:none;stroke:#000000;stroke-width:1.2997;stroke-linecap:round;stroke-linejoin:round;stroke-miterlimit:10;" d="
				M221.711,195.186c3.426,1.263,9.508,1.343,13.999,0"/>
			<path style="fill:#CE4313;" d="M205.745,162.569c-2.361-6.569,8.473-8.894,9.566-14.125c1.092-5.231,6.388-42.279,13.642-42.563
				c7.253-0.284,12.42,38.949,13.35,42.805c0.929,3.855,7.308,7.756,6.724,12.709c-0.584,4.953-13.217,7.003-14.44,8.868
				c-1.226,1.864-8.357,5.256-14.019-0.23C214.902,164.545,207.491,167.43,205.745,162.569z"/>
			<path d="M222.855,168.905c-0.559-1.017-9.741-10.257-11.98-7.834C208.634,163.493,222.855,168.905,222.855,168.905z"/>
			<path d="M232.696,168.519c0.478-1.056,8.909-10.986,11.332-8.745C246.451,162.014,232.696,168.519,232.696,168.519z"/>
			<path style="fill:#821D06;" d="M178.935,118.709c0,1.159,18.147-2.333,21.518-2.074c3.37,0.259,15.814,3.889,16.591,2.333
				c0.778-1.556-0.777-16.851-2.074-17.37c-1.296-0.519-15.813-0.519-20.221,0.259C190.342,102.636,178.935,116.376,178.935,118.709
				z"/>
			<path style="fill:#821D06;" d="M280.482,118.709c0,1.159-18.147-2.333-21.518-2.074c-3.37,0.259-15.814,3.889-16.592,2.333
				c-0.777-1.556,0.777-16.851,2.074-17.37c1.296-0.519,15.813-0.519,20.221,0.259C269.075,102.636,280.482,116.376,280.482,118.709
				z"/>
			<path style="fill:#0088F7;" d="M271.832,151.979c0,0,9.678-17.283,11.406-21.431c1.729-4.148,6.567-21.43,8.642-22.813
				c2.073-1.383,4.666-1.383,4.666-1.383s-1.9,6.222-5.012,20.74c-2.983,13.923-11.753,28.344-11.753,28.344L271.832,151.979z"/>
			<path style="opacity:0.5;fill:#72EEEE;" d="M290.843,160.966c-1.706-2.047-34.73-18.629-61.182-19.324
				c0,0-0.347-0.019-0.519-0.017c-0.172-0.002-0.518,0.017-0.518,0.017c-26.451,0.694-59.476,17.276-61.182,19.324
				c-1.729,2.074-6.913,33.183,7.95,66.712c13.872,31.293,49.072,29.097,53.75,29.097c4.882,0,39.878,2.196,53.75-29.097
				C297.755,194.149,292.571,163.04,290.843,160.966z"/>
			<path style="fill:#0088F7;" d="M185.762,152.497c0,0-8.987-17.802-10.716-21.95c-1.729-4.148-6.567-21.43-8.641-22.813
				c-2.074-1.383-5.358-0.346-5.358-0.346s2.592,5.185,5.703,19.703c2.983,13.923,11.753,28.344,11.753,28.344L185.762,152.497z"/>
			<path style="opacity:0.15;fill:#72EEEE;" d="M254.289,207.5c0,3.794-11.259,6.87-25.146,6.87c-13.888,0-25.147-3.076-25.147-6.87
				c0-3.794,11.259-6.87,25.147-6.87C243.03,200.63,254.289,203.706,254.289,207.5z"/>
			<path style="opacity:0.15;fill:#72EEEE;" d="M254.289,238.609c0,3.793-11.259,6.87-25.146,6.87
				c-13.888,0-25.147-3.077-25.147-6.87c0-3.794,11.259-6.87,25.147-6.87C243.03,231.739,254.289,234.816,254.289,238.609z"/>
			<g>
				<path style="fill:#0088F7;" d="M229.105,144.736c0.013,0,0.024,0,0.037,0c0.01,0,0.02,0,0.029,0
					c0.117,0.001,0.309,0.012,0.319,0.013c0.029,0.001,0.059,0.002,0.088,0.003c24.776,0.65,54.833,15.504,58.769,18.187
					c0.615,1.836,2.042,9.299,1.59,20.751c-0.404,10.226-2.447,25.939-9.889,42.727c-10.522,23.736-34.483,27.279-47.83,27.279
					c-0.838,0-1.547-0.012-2.105-0.02c-0.395-0.007-0.721-0.013-0.971-0.013c-0.238,0-0.552,0.006-0.934,0.012
					c-0.548,0.01-1.25,0.021-2.085,0.021c-13.368,0-37.365-3.543-47.887-27.279c-7.442-16.789-9.485-32.502-9.889-42.727
					c-0.452-11.452,0.975-18.915,1.589-20.751c3.936-2.683,33.992-17.537,58.769-18.187c0.029-0.001,0.059-0.002,0.088-0.003
					C228.805,144.748,229,144.736,229.105,144.736 M229.169,141.625c-0.009,0-0.018,0-0.026,0c-0.009,0-0.018,0-0.026,0
					c-0.179,0-0.492,0.017-0.492,0.017c-26.451,0.694-59.476,17.276-61.182,19.324c-1.729,2.074-6.913,33.183,7.95,66.712
					c12.164,27.44,40.73,29.13,50.732,29.13c1.404,0,2.442-0.033,3.018-0.033c0.601,0,1.659,0.033,3.076,0.033
					c10.1,0,38.509-1.688,50.674-29.13c14.862-33.529,9.679-64.639,7.95-66.712c-1.706-2.047-34.73-18.629-61.182-19.324
					C229.661,141.642,229.348,141.625,229.169,141.625L229.169,141.625z"/>
			</g>
			
				<path style="fill:none;stroke:#FFFFFF;stroke-width:1.037;stroke-linecap:round;stroke-linejoin:round;stroke-miterlimit:10;" d="
				M258.523,46.898c5.568,2.357,10.414,6.492,14.69,10.542"/>
			
				<path style="fill:none;stroke:#FFFFFF;stroke-width:1.037;stroke-linecap:round;stroke-linejoin:round;stroke-miterlimit:10;" d="
				M300.52,107.562c4.431,0.357,8.438,2.301,11.58,5.531"/>
			
				<path style="fill:none;stroke:#FFFFFF;stroke-width:1.037;stroke-linecap:round;stroke-linejoin:round;stroke-miterlimit:10;" d="
				M273.732,152.151c1.688,0.712,3.316,1.586,4.839,2.592"/>
			
				<path style="fill:none;stroke:#FFFFFF;stroke-width:1.037;stroke-linecap:round;stroke-linejoin:round;stroke-miterlimit:10;" d="
				M179.713,154.571c1.332-0.526,2.727-1.193,3.975-1.901"/>
			
				<path style="fill:none;stroke:#FFFFFF;stroke-width:1.037;stroke-linecap:round;stroke-linejoin:round;stroke-miterlimit:10;" d="
				M200.971,197.951c13.253,12.188,26.534,24.423,38.368,38.023"/>
			
				<path style="fill:none;stroke:#FFFFFF;stroke-width:1.037;stroke-linecap:round;stroke-linejoin:round;stroke-miterlimit:10;" d="
				M223.093,204.519c6.004,5.642,11.885,11.407,17.629,17.283"/>
			
				<path style="fill:none;stroke:#FFFFFF;stroke-width:1.037;stroke-linecap:round;stroke-linejoin:round;stroke-miterlimit:10;" d="
				M221.365,157.164c4.067,4.497,9.25,4.522,13.48-1.037"/>
			<path d="M184.72,132.449c0,0,7.793-3.581,12.217-3.581c4.423,0,10.953,2.949,10.953,2.949s-7.162-7.793-10.743-7.793
				C193.566,124.023,184.72,132.449,184.72,132.449z"/>
			<path d="M269.071,132.449c0,0-7.794-3.581-12.217-3.581c-4.424,0-10.953,2.949-10.953,2.949s7.161-7.793,10.742-7.793
				C260.225,124.023,269.071,132.449,269.071,132.449z"/>
			
				<line style="fill:none;stroke:#821D06;stroke-width:1.037;stroke-linecap:round;stroke-linejoin:round;stroke-miterlimit:10;" x1="218.945" y1="118.709" x2="217.044" y2="102.031"/>
			
				<line style="fill:none;stroke:#821D06;stroke-width:1.037;stroke-linecap:round;stroke-linejoin:round;stroke-miterlimit:10;" x1="240.894" y1="119.055" x2="242.709" y2="101.686"/>
		</g>
	</g>
</g>
</svg>
